<svg xmlns="http://www.w3.org/2000/svg" xmlns:xlink="http://www.w3.org/1999/xlink" width="70" height="70" viewBox="0 0 70 70">
  <defs>
    <clipPath id="clip-path">
      <circle id="Ellipse_22" data-name="Ellipse 22" cx="35" cy="35" r="35" transform="translate(57 428)" fill="#fff" stroke="#707070" stroke-width="1"/>
    </clipPath>
  </defs>
  <g id="Mask_Group_4" data-name="Mask Group 4" transform="translate(-57 -428)" clip-path="url(#clip-path)">
    <g id="vote" transform="translate(57 428)">
      <g id="Group_85" data-name="Group 85">
        <path id="Path_3828" data-name="Path 3828" d="M46.778,49.856a2.7,2.7,0,0,1-1.912,4.616H39.621a2.7,2.7,0,0,1,0-5.408h5.245A2.7,2.7,0,0,1,46.778,49.856Z" fill="#ffdfcf"/>
        <path id="Path_3829" data-name="Path 3829" d="M45.163,52.7H39.918a2.7,2.7,0,0,1-2.663-2.247,2.7,2.7,0,0,0,2.366,4.015h5.245a2.69,2.69,0,0,0,2.662-3.163A2.7,2.7,0,0,1,45.163,52.7Z" fill="#ffcebf"/>
        <path id="Path_3830" data-name="Path 3830" d="M46.634,44.416a2.718,2.718,0,0,1-1.922,4.64H39.439a2.718,2.718,0,1,1,0-5.436h5.272A2.717,2.717,0,0,1,46.634,44.416Z" fill="#ffdfcf"/>
        <path id="Path_3831" data-name="Path 3831" d="M45.018,47.5H39.746a2.717,2.717,0,0,1-2.7-2.442,2.718,2.718,0,0,0,2.4,4h5.272a2.718,2.718,0,0,0,2.718-2.718,2.748,2.748,0,0,0-.014-.278A2.717,2.717,0,0,1,45.018,47.5Z" fill="#ffcebf"/>
        <path id="Path_3832" data-name="Path 3832" d="M57.7,64.062a5.98,5.98,0,0,0,2.877-.737l4.917-2.7h2.325a1.319,1.319,0,0,0,1.319-1.319V45.819A1.319,1.319,0,0,0,67.819,44.5H45.2V64.062Z" fill="#ffdfcf"/>
        <path id="Path_3833" data-name="Path 3833" d="M67.819,58.117H65.494l-4.917,2.7a5.98,5.98,0,0,1-2.877.737H45.2v2.512H57.7a5.98,5.98,0,0,0,2.877-.737l4.917-2.7h2.325a1.319,1.319,0,0,0,1.319-1.319V56.8A1.319,1.319,0,0,1,67.819,58.117Z" fill="#ffcebf"/>
        <path id="Path_3834" data-name="Path 3834" d="M30.656,43.688a2.815,2.815,0,1,1,0,5.631H25.2a2.815,2.815,0,1,1,0-5.631Z" fill="#eb9c8d"/>
        <path id="Path_3835" data-name="Path 3835" d="M32.877,46.715a2.811,2.811,0,0,1-1.991.824H25.425a2.816,2.816,0,0,1-2.761-2.264,2.81,2.81,0,0,0,2.53,4.043h5.461a2.818,2.818,0,0,0,2.762-3.364,2.805,2.805,0,0,1-.541.76Z" fill="#d78878"/>
        <path id="Path_3836" data-name="Path 3836" d="M2.508,60.63H5.273l5.766,2.7a7.991,7.991,0,0,0,3.374.737h11.06V44.5H2.508A1.411,1.411,0,0,0,1,45.786V59.343A1.411,1.411,0,0,0,2.508,60.63Z" fill="#eb9c8d"/>
        <path id="Path_3837" data-name="Path 3837" d="M14.412,60.926a7.991,7.991,0,0,1-3.374-.737l-5.766-2.7H2.508A1.411,1.411,0,0,1,1,56.207V45.786H1V59.343A1.411,1.411,0,0,0,2.508,60.63H5.273l5.766,2.7a7.991,7.991,0,0,0,3.374.737h11.06V60.926H14.412Z" fill="#d78878"/>
        <path id="Path_3838" data-name="Path 3838" d="M9.792,44.5v4.877a5.258,5.258,0,0,0,4.241,5.16h0a10.252,10.252,0,0,0,1.213.073,10.052,10.052,0,0,0,4.3-.971,5.471,5.471,0,0,0,5.091,3.477h.069a5.359,5.359,0,0,0,.759-.065V44.5H9.792Z" fill="#d78878"/>
        <path id="Path_3839" data-name="Path 3839" d="M22.129,68.975h-3.67a.746.746,0,0,1-.746-.746V20.473h5.162V68.229a.746.746,0,0,1-.746.746Z" fill="#baafb9"/>
        <path id="Path_3840" data-name="Path 3840" d="M22.875,52.572a4.681,4.681,0,0,0-2.449,7.093,4.684,4.684,0,0,0,2.449,7.1Z" fill="#9b8e99"/>
        <path id="Path_3841" data-name="Path 3841" d="M22.875,44.5H17.713v9.8a10.114,10.114,0,0,0,1.047-.327.964.964,0,0,1,1.165.431,5.5,5.5,0,0,0,.859,1.111,5.436,5.436,0,0,0,2.091,1.306V44.5Z" fill="#9b8e99"/>
        <g id="Group_84" data-name="Group 84">
          <g id="XMLID_385_">
            <g id="Group_78" data-name="Group 78">
              <g id="XMLID_389_">
                <g id="Group_76" data-name="Group 76">
                  <path id="Path_3842" data-name="Path 3842" d="M30.377,48.906a2.863,2.863,0,1,1,0,5.725h-4.9a2.863,2.863,0,1,1,0-5.725Z" fill="#eb9c8d"/>
                </g>
              </g>
              <path id="Path_3843" data-name="Path 3843" d="M32.668,52.082a2.861,2.861,0,0,1-2.026.838h-4.9A2.861,2.861,0,0,1,22.912,50.5a2.858,2.858,0,0,0,2.561,4.136h4.9a2.861,2.861,0,0,0,2.83-3.3A2.886,2.886,0,0,1,32.668,52.082Z" fill="#d78878"/>
              <path id="Path_3844" data-name="Path 3844" d="M25.473,48.906a2.863,2.863,0,1,0,0,5.725h3.722a5.537,5.537,0,0,0,.911-3.047V48.906H25.473Z" fill="#d78878"/>
              <path id="Path_3845" data-name="Path 3845" d="M29.405,54.4a2.633,2.633,0,1,1,0,5.265H24.3a2.633,2.633,0,1,1,0-5.265Z" fill="#eb9c8d"/>
              <path id="Path_3846" data-name="Path 3846" d="M28.809,59.667a2.633,2.633,0,1,1,0,5.265H24.3a2.633,2.633,0,1,1,0-5.265Z" fill="#eb9c8d"/>
              <g id="Group_77" data-name="Group 77">
                <path id="Path_3847" data-name="Path 3847" d="M31.533,57.168a2.629,2.629,0,0,1-1.862.771H24.564a2.634,2.634,0,0,1-2.586-2.149,2.634,2.634,0,0,0,2.32,3.878h5.107a2.632,2.632,0,0,0,2.633-2.633,2.657,2.657,0,0,0-.044-.484A2.637,2.637,0,0,1,31.533,57.168Z" fill="#d78878"/>
                <path id="Path_3848" data-name="Path 3848" d="M30.938,62.433a2.632,2.632,0,0,1-1.863.771H24.564a2.633,2.633,0,0,1-2.588-2.147A2.634,2.634,0,0,0,24.3,64.932h4.511A2.635,2.635,0,0,0,31.4,61.814,2.647,2.647,0,0,1,30.938,62.433Z" fill="#d78878"/>
              </g>
            </g>
          </g>
          <g id="XMLID_384_">
            <g id="Group_79" data-name="Group 79">
              <path id="Path_3849" data-name="Path 3849" d="M30.019,49.318h.087V43.688H25.2a2.815,2.815,0,0,0,0,5.631Z" fill="#d78878"/>
              <path id="Path_3850" data-name="Path 3850" d="M27.372,42.08v9.5a2.773,2.773,0,0,1-2.692,2.8,2.726,2.726,0,0,1-2.762-2.727V47.627a7.364,7.364,0,0,1-6.668,4.248,7.485,7.485,0,0,1-.889-.053l-1.617-.2a6.155,6.155,0,0,1-4.677-4.132l-.98-3,8.459-5.43a5.667,5.667,0,0,1,3.058-.9h4.855a3.914,3.914,0,0,1,3.914,3.914Z" fill="#eb9c8d"/>
            </g>
          </g>
          <circle id="Ellipse_20" data-name="Ellipse 20" cx="12.414" cy="12.414" r="12.414" transform="translate(7.944 1.025)" fill="#ade194"/>
          <path id="Path_3851" data-name="Path 3851" d="M13.829,13.439A12.422,12.422,0,0,1,23.3,1.376a12.414,12.414,0,1,0,0,24.125A12.421,12.421,0,0,1,13.829,13.439Z" fill="#97da7b"/>
          <path id="Path_3852" data-name="Path 3852" d="M61.9,44.5H45.2V57.106c.074,0,.148.008.222.008h.069a5.471,5.471,0,0,0,5.091-3.477,10.052,10.052,0,0,0,4.3.971,10.284,10.284,0,0,0,1.217-.073l1.8-.217.178-.046.043-.011a5.127,5.127,0,0,0,3.782-4.97Z" fill="#ffcebf"/>
          <path id="Path_3853" data-name="Path 3853" d="M51.127,68.975H48.559a1.3,1.3,0,0,1-1.3-1.3V26.169h5.162V67.678a1.3,1.3,0,0,1-1.3,1.3Z" fill="#baafb9"/>
          <path id="Path_3854" data-name="Path 3854" d="M49.148,53.721a4.671,4.671,0,0,0-1.886-1.149V66.761a4.684,4.684,0,0,0,2.449-7.1,4.679,4.679,0,0,0-.563-5.944Z" fill="#9b8e99"/>
          <path id="Path_3855" data-name="Path 3855" d="M52.424,44.5H47.262V56.822a5.436,5.436,0,0,0,2.091-1.306,5.506,5.506,0,0,0,.761-.949,1.259,1.259,0,0,1,1.482-.514q.408.141.829.248Z" fill="#9b8e99"/>
          <g id="XMLID_400_">
            <g id="Group_80" data-name="Group 80">
              <path id="Path_3856" data-name="Path 3856" d="M47.7,55.173a2.633,2.633,0,0,1-1.862,4.495H40.732a2.633,2.633,0,1,1,0-5.265h5.107a2.631,2.631,0,0,1,1.862.771Z" fill="#ffdfcf"/>
              <path id="Path_3857" data-name="Path 3857" d="M47.7,60.438a2.633,2.633,0,0,1-1.862,4.495H41.328a2.633,2.633,0,1,1,0-5.265h4.511a2.631,2.631,0,0,1,1.862.771Z" fill="#ffdfcf"/>
            </g>
          </g>
          <g id="XMLID_402_">
            <g id="Group_81" data-name="Group 81">
              <path id="Path_3858" data-name="Path 3858" d="M46.136,57.971H41.029a2.626,2.626,0,0,1-2.6-2.219,2.633,2.633,0,0,0,2.3,3.915h5.107a2.633,2.633,0,0,0,2.633-2.633,2.7,2.7,0,0,0-.033-.421,2.64,2.64,0,0,1-2.3,1.357Z" fill="#ffcebf"/>
              <path id="Path_3859" data-name="Path 3859" d="M46.136,63.236H41.625a2.627,2.627,0,0,1-2.6-2.218,2.633,2.633,0,0,0,2.3,3.914h4.511A2.633,2.633,0,0,0,48.471,62.3a2.7,2.7,0,0,0-.033-.421,2.64,2.64,0,0,1-2.3,1.357Z" fill="#ffcebf"/>
            </g>
          </g>
          <g id="XMLID_397_">
            <g id="Group_82" data-name="Group 82">
              <path id="Path_3860" data-name="Path 3860" d="M44.866,49.065H40.03v2.52a5.535,5.535,0,0,0,.812,2.888h4.024a2.7,2.7,0,1,0,0-5.408Z" fill="#ffcebf"/>
              <path id="Path_3861" data-name="Path 3861" d="M44.712,43.62H40.03v5.436h4.681a2.718,2.718,0,1,0,0-5.436Z" fill="#ffcebf"/>
              <path id="Path_3862" data-name="Path 3862" d="M63.155,44.5l-.38,1.616a7.457,7.457,0,0,1-5.383,5.511l-1.617.2a7.485,7.485,0,0,1-.889.053,7.364,7.364,0,0,1-6.668-4.248v4.027a2.726,2.726,0,0,1-2.762,2.727,2.773,2.773,0,0,1-2.692-2.8v-9.5a3.914,3.914,0,0,1,3.914-3.914h4.855a5.667,5.667,0,0,1,3.058.9L63.063,44.5Z" fill="#ffdfcf"/>
            </g>
          </g>
          <circle id="Ellipse_21" data-name="Ellipse 21" cx="12.414" cy="12.414" r="12.414" transform="translate(37.365 9.227)" fill="#f58a97"/>
          <path id="Path_3863" data-name="Path 3863" d="M42.423,21.641A12.421,12.421,0,0,1,52.31,9.484a12.414,12.414,0,1,0,0,24.313,12.421,12.421,0,0,1-9.888-12.156Z" fill="#f07281"/>
          <g id="Group_83" data-name="Group 83">
            <path id="Path_3864" data-name="Path 3864" d="M53.177,21.641l3.362-3.362a.774.774,0,0,0,0-1.1l-2.3-2.3a.774.774,0,0,0-1.095,0l-3.362,3.362L46.417,14.88a.774.774,0,0,0-1.095,0l-2.3,2.3a.774.774,0,0,0,0,1.1l3.362,3.362L43.019,25a.774.774,0,0,0,0,1.1l2.3,2.3a.774.774,0,0,0,1.095,0l3.362-3.362L53.141,28.4a.774.774,0,0,0,1.095,0l2.3-2.3a.774.774,0,0,0,0-1.1Z" fill="#f9f7f8"/>
            <path id="Path_3865" data-name="Path 3865" d="M15.939,19.69h3.319l9.076-9.043a.4.4,0,0,0,.006-.56L25.674,7.311A.4.4,0,0,0,25.1,7.3l-7.29,7.263-1.828-2.3a.172.172,0,0,0-.24-.03l-3.414,2.62a.172.172,0,0,0-.03.243l3.465,4.4a2.32,2.32,0,0,0,.172.195Z" fill="#f9f7f8"/>
          </g>
        </g>
      </g>
      <g id="Group_86" data-name="Group 86">
        <path id="Path_3866" data-name="Path 3866" d="M1.135,45.525H7.074a1.026,1.026,0,0,0,.554-.162l3.771-2.42a1.025,1.025,0,1,0-1.108-1.726L6.773,43.475H1.135a1.025,1.025,0,0,0,0,2.05Z"/>
        <path id="Path_3867" data-name="Path 3867" d="M34.1,46.5a3.662,3.662,0,0,0-3.658-3.658H28.4v-.765a4.945,4.945,0,0,0-4.5-4.918V26.406a13.341,13.341,0,0,0,4.565-2.249,1.025,1.025,0,0,0-1.238-1.634,11.287,11.287,0,0,1-6.869,2.3,11.385,11.385,0,1,1,9.6-5.264,1.025,1.025,0,1,0,1.728,1.1,13.44,13.44,0,1,0-15,5.7V37.421a6.679,6.679,0,0,0-1.695.779l-1.009.648a1.025,1.025,0,0,0,1.108,1.726l1.009-.648a4.626,4.626,0,0,1,2.5-.734h4.856a2.892,2.892,0,0,1,2.888,2.888v9.574a1.7,1.7,0,1,1-3.4,0V47.627a1.025,1.025,0,0,0-1.954-.434,6.324,6.324,0,0,1-6.5,3.611l-1.616-.2a1.025,1.025,0,0,0-.246,2.036l1.616.2a8.414,8.414,0,0,0,2.449-.065V63.036H12.437a4.973,4.973,0,0,1-2.384-.611l-4.916-2.7a1.025,1.025,0,0,0-.493-.126H1.135a1.025,1.025,0,0,0,0,2.05H4.381l4.686,2.569a7.03,7.03,0,0,0,3.37.863h4.251v3.888a1.025,1.025,0,0,0,2.05,0V52.142a8.365,8.365,0,0,0,2.155-1.422v.933a3.736,3.736,0,0,0,1.045,2.592,3.646,3.646,0,0,0-.173,5.421,3.651,3.651,0,0,0,.086,5.348v3.96a1.025,1.025,0,0,0,2.05,0V65.936a3.691,3.691,0,0,0,.4.022H28.81a3.654,3.654,0,0,0,2.8-6.008,3.648,3.648,0,0,0,.646-5.2,3.651,3.651,0,0,0,.561-5.462A3.647,3.647,0,0,0,34.1,46.5ZM18.738,37.141V26.78a13.514,13.514,0,0,0,1.62.1A13.706,13.706,0,0,0,21.85,26.8V37.141ZM24.3,55.427h5.107a1.608,1.608,0,0,1,0,3.215H24.3a1.608,1.608,0,1,1,0-3.215Zm4.511,8.481H24.3a1.608,1.608,0,1,1,0-3.215H28.81a1.608,1.608,0,1,1,0,3.215Zm1.324-10.532H27.977a3.721,3.721,0,0,0,.421-1.723V50.161h1.736a1.608,1.608,0,1,1,0,3.215Zm.313-5.266H28.4V44.9h2.049a1.608,1.608,0,1,1,0,3.215Z"/>
        <path id="Path_3868" data-name="Path 3868" d="M68.864,59.6H65.493a1.025,1.025,0,0,0-.493.126l-4.916,2.7a4.973,4.973,0,0,1-2.384.611H53.449V52.776a8.4,8.4,0,0,0,2.449.064l1.616-.2a1.025,1.025,0,1,0-.246-2.036l-1.616.2a6.325,6.325,0,0,1-6.5-3.611,1.025,1.025,0,0,0-1.954.434v4.026a1.7,1.7,0,1,1-3.4,0V42.079a2.892,2.892,0,0,1,2.888-2.888h4.856a4.625,4.625,0,0,1,2.5.734l8.472,5.437a1.026,1.026,0,0,0,.554.162h5.8a1.025,1.025,0,0,0,0-2.05h-5.5L55.144,38.2a6.683,6.683,0,0,0-1.7-.779v-2.85a13.442,13.442,0,0,0,7.619-20.222,1.025,1.025,0,1,0-1.721,1.114,11.391,11.391,0,1,1-2.736-2.934,1.025,1.025,0,1,0,1.231-1.639,13.44,13.44,0,0,0-21.5,10.751,13.463,13.463,0,0,0,9.9,12.965v2.556a4.945,4.945,0,0,0-4.5,4.918v.765H39.69a3.654,3.654,0,0,0-2.369,6.44,3.65,3.65,0,0,0,.559,5.461,3.649,3.649,0,0,0,.648,5.206,3.653,3.653,0,0,0,2.8,6.007h4.511a3.7,3.7,0,0,0,.4-.022v3.039a1.025,1.025,0,0,0,2.05,0v-3.96a3.649,3.649,0,0,0,.086-5.347,3.65,3.65,0,0,0-.171-5.422,3.737,3.737,0,0,0,1.043-2.592v-.933A8.369,8.369,0,0,0,51.4,52.142V68.975a1.025,1.025,0,0,0,2.05,0V65.087H57.7a7.03,7.03,0,0,0,3.37-.863l4.686-2.569h3.109a1.025,1.025,0,1,0,0-2.05ZM49.779,35.08a13.514,13.514,0,0,0,1.62-.1v2.158H48.287V35A13.513,13.513,0,0,0,49.779,35.08ZM45.838,58.642H40.731a1.608,1.608,0,0,1,0-3.215h5.107a1.608,1.608,0,0,1,0,3.215ZM40,53.376a1.608,1.608,0,0,1,0-3.215h1.736v1.493a3.726,3.726,0,0,0,.421,1.723H40ZM39.69,44.9h2.049v3.215H39.69a1.608,1.608,0,0,1,0-3.215Zm1.637,19.013a1.608,1.608,0,0,1,0-3.215h4.511a1.608,1.608,0,0,1,0,3.215Z"/>
        <path id="Path_3869" data-name="Path 3869" d="M42.293,26.823l2.3,2.3a1.8,1.8,0,0,0,2.545,0l2.637-2.637,2.637,2.637a1.8,1.8,0,0,0,2.545,0l2.3-2.3a1.8,1.8,0,0,0,0-2.545l-2.637-2.637L57.264,19a1.8,1.8,0,0,0,0-2.545l-2.3-2.3a1.8,1.8,0,0,0-2.545,0l-2.637,2.637-2.637-2.637a1.8,1.8,0,0,0-2.545,0l-2.3,2.3a1.8,1.8,0,0,0,0,2.545l2.637,2.637-2.637,2.637a1.8,1.8,0,0,0,0,2.545Zm4.812-4.457a1.025,1.025,0,0,0,0-1.45l-3.185-3.185,1.948-1.948,3.185,3.185a1.025,1.025,0,0,0,1.45,0l3.185-3.185,1.948,1.948-3.185,3.185a1.025,1.025,0,0,0,0,1.45l3.185,3.185L53.688,27.5,50.5,24.314a1.025,1.025,0,0,0-1.45,0L45.869,27.5l-1.948-1.948Z"/>
        <path id="Path_3870" data-name="Path 3870" d="M25.4,6.163a1.421,1.421,0,0,0-1.022.416L17.9,13.032l-1.114-1.4a1.2,1.2,0,0,0-1.667-.205l-3.414,2.62a1.2,1.2,0,0,0-.211,1.691l3.462,4.392a3.325,3.325,0,0,0,.248.282,1.025,1.025,0,0,0,.732.307h3.319a1.025,1.025,0,0,0,.724-.3l9.076-9.043a1.432,1.432,0,0,0,.022-2L26.414,6.6A1.414,1.414,0,0,0,25.4,6.163Zm-6.567,12.5H16.417l-2.776-3.522L15.7,13.56l1.306,1.645a1.025,1.025,0,0,0,1.526.089l6.839-6.813,1.8,1.874Z"/>
      </g>
    </g>
  </g>
</svg>
